<svg id="Layer_1" data-name="Layer 1" xmlns="http://www.w3.org/2000/svg" xmlns:xlink="http://www.w3.org/1999/xlink" viewBox="0 0 40 40"><defs><linearGradient id="linear-gradient" y1="100" x2="1" y2="100" gradientTransform="matrix(17.26, 0, 0, -65.15, 41.39, 6547.74)" gradientUnits="userSpaceOnUse"><stop offset="0" stop-color="#75787c"/><stop offset="1" stop-color="#acadb0"/></linearGradient><linearGradient id="linear-gradient-2" y1="100" x2="1" y2="100" gradientTransform="matrix(4.32, 0, 0, -4.32, 43.72, 502.36)" xlink:href="#linear-gradient"/><linearGradient id="linear-gradient-3" y1="100" x2="1" y2="100" gradientTransform="matrix(4.32, 0, 0, -4.32, 43.72, 508.22)" xlink:href="#linear-gradient"/><linearGradient id="linear-gradient-4" y1="100" x2="1" y2="100" gradientTransform="matrix(4.32, 0, 0, -4.32, 43.72, 514.08)" xlink:href="#linear-gradient"/><linearGradient id="linear-gradient-5" y1="100" x2="1" y2="100" gradientTransform="matrix(4.32, 0, 0, -4.32, 43.72, 519.94)" xlink:href="#linear-gradient"/><linearGradient id="linear-gradient-6" y1="100" x2="1" y2="100" gradientTransform="matrix(4.32, 0, 0, -4.32, 43.72, 525.8)" xlink:href="#linear-gradient"/></defs><polygon points="50.08 2.24 65.56 33.6 100.16 38.63 75.12 63.04 81.03 97.5 50.08 81.23 19.13 97.5 25.04 63.04 0 38.63 34.6 33.6 50.08 2.24" style="fill:#d4af37;fill-rule:evenodd"/><path d="M58.56,19.49C59.77,9.64,51.31.28,41.39.51h0V65.65H53.93S56.63,38.72,58.56,19.49Z" transform="translate(0.78 -0.06)" style="fill-rule:evenodd;fill:url(#linear-gradient)"/><path d="M58.16,27.82c-1,9.43-2.92,28.49-3.87,37.87v.06l0,0,0,.06,0,0,0,0h0l0,0L54,66h-.11L41.39,66h-.06l-.06,0-.06,0-.05,0,0,0h0l0,0,0-.06,0-.06v-.06c0-20.6,0-44.48,0-65.14V.44l0-.07,0-.06,0-.06,0,0,0,0,.06,0,.07,0h.07a17.32,17.32,0,0,1,3.45.34c.28,0,.57.12.85.19l.71.19q.48.14.93.3l.48.18.27.11.05,0,.11,0,.16.07.15.07.06,0,.62.29.2.11.21.1,0,0,.05,0,0,0,.05,0,.1,0,.1.06.05,0,.1,0,.05,0,.64.39,0,0,.15.09,0,0,.05,0,0,0,0,0,.05,0,0,0,.09.07,0,0,.09.07,0,0,.56.41,0,0,.09.07.05,0,0,0,0,0,0,0,.05,0,0,0,0,0,0,0,.13.11,0,0,.35.3,0,0,.13.12,0,0,0,0,0,0,0,0,0,0,0,0,.09.08,0,0c.07.06.14.14.2.2L54,5.4l0,0,0,0,.16.17,0,0,.08.09,0,0,0,0,0,0,0,0,.11.13,0,0c.07.07.13.15.19.22l0,0,.11.13,0,.05,0,0,0,0,0,0,.07.09,0,0,.28.37,0,0,0,0,0,0,0,0,0,.05,0,0,0,0,0,0,.29.43,0,.05.07.1.06.09,0,.05,0,0,0,.05c.08.13.16.27.24.39l0,.05.06.1,0,.05,0,0,0,.1,0,0,.25.46,0,0,0,.05,0,.05,0,.06,0,.05,0,.05.05.1,0,0,.1.21,0,0,.07.16,0,.05,0,.05,0,.06,0,.05,0,0,0,.05c.06.14.12.29.17.43l0,.05,0,.11,0,.05,0,.06,0,.1,0,.06.17.48,0,.06,0,0v.06l0,.05,0,.11,0,.06.12.38V13l0,.11,0,.05v.06l0,.11,0,.05c0,.15.07.3.11.45V14l0,.05v.12l.1.5v.06l0,.11V15l0,.23v.05l0,.12v.05l0,.17v.23l.06.58v.34l0,.47v2l0,.29Zm0-8.49,0-.22v-.26h0v-.11l0-.34V17.07l0-.38v-.28l0-.16v-.06l0-.32v-.28l0-.1v-.06L58,15V15l0-.11v-.11l0-.11v0c0-.12,0-.25-.07-.38l0,0,0-.11v-.1l0,0v-.06l0-.16v-.05a1.6,1.6,0,0,1,0-.21l0-.05,0-.11v-.05l0,0v-.06l0-.05v0l0-.05-.15-.47v-.05l0-.11,0-.05V12.2l0-.1,0,0-.15-.41,0-.05,0-.1,0-.06,0,0,0-.1,0,0-.2-.45,0,0,0-.05,0,0,0-.1-.05-.09,0,0L56.32,10l0-.05,0-.1,0,0,0-.05,0,0,0-.05a1.09,1.09,0,0,1-.08-.15l0,0a1.18,1.18,0,0,0-.11-.19l0,0a1,1,0,0,0-.08-.14l0-.05,0,0,0,0,0,0,0-.05,0,0-.33-.51,0-.05,0,0,0-.05,0,0L55.12,8l0,0L55,7.85l0,0,0,0-.17-.22,0,0-.07-.09-.07-.08,0-.05,0,0,0,0-.32-.39,0,0-.07-.08,0,0,0,0-.08-.08,0,0-.12-.13,0,0L53.46,6l0,0-.08-.08,0,0-.08-.08,0,0,0,0,0,0,0,0L53,5.55h0l0,0,0,0-.45-.41-.05,0L52.33,5l0,0,0,0,0,0,0,0,0,0,0,0,0,0,0,0-.13-.11,0,0-.44-.34,0,0-.13-.1-.05,0,0,0,0,0,0,0-.05,0,0,0,0,0,0,0-.09-.06,0,0-.14-.09,0,0-.42-.26,0,0-.14-.08-.05,0-.09-.06-.05,0,0,0,0,0,0,0-.05,0,0,0,0,0-.05,0-.1,0,0,0-.1,0,0,0c-.22-.12-.46-.23-.69-.34l-.19-.09-.06,0-.09,0-.06,0-.05,0-.2-.08-.05,0,0,0-.15-.07L47.37,2c-.33-.13-.65-.24-1-.35l-.69-.19-.16,0A16.47,16.47,0,0,0,41.78.9h0c0,18.17-.07,40.05-.05,58.16h0V65.3H53.59C54.89,52.18,56.84,32.41,58.12,19.33Z" transform="translate(0.78 -0.06)" style="fill:#373737;fill-rule:evenodd"/><path d="M41.39,3.54v-3h0c9.92-.22,18.38,9.13,17.17,19-1.93,19.23-4.63,46.16-4.63,46.16h-3l4.36-43.43A17.37,17.37,0,0,0,41.39,3.54Z" transform="translate(0.78 -0.06)" style="fill:#bdbdbd;fill-rule:evenodd"/><path d="M40.94.51V.43l0-.08,0-.07,0-.06L41.1.16l.06,0,.07,0,.08,0h.08a18.06,18.06,0,0,1,3.8.42l.11,0q.42.09.84.21l.49.15.49.16.33.11.16.06.16.07,0,0,.06,0,.1,0,.11,0,.11.05.15.07a1.33,1.33,0,0,1,.21.09l.73.34.05,0,.15.08,0,0,.11.06,0,0,.06,0,0,0,.05,0,.1.06,0,0,.1.05,0,0,.14.09.06,0,.39.24,0,0,.14.09,0,0,.1.06,0,0,.05,0,0,0,.05,0,0,0,0,0,.1.06,0,0,.14.1,0,0,.33.24,0,0,.19.14,0,0,.05,0,0,0,0,0,0,0,.05,0,0,0,0,0,.08.08.05,0,.48.42,0,0,.09.08,0,0,.09.08.08.08,0,0,0,0,0,0,.16.16,0,0L54,5.4l0,0,.17.17,0,0,.08.09,0,0,0,0,.07.09,0,0a1.54,1.54,0,0,0,.12.13l0,0,.07.09,0,0c.05.06.11.12.15.18l0,0,0,0,0,0,0,0,0,0,0,0a1.34,1.34,0,0,1,.11.14l0,0,.1.14,0,0,.1.14,0,0,0,0,0,.05,0,0,0,0,0,0c.11.15.22.32.32.47l0,0,.07.1,0,.05,0,.05.09.14,0,.05c0,.08.1.17.15.25l0,.05.09.15,0,0,0,0,0,.05,0,.05.08.16,0,0,.11.2,0,0a1.09,1.09,0,0,1,.08.15l0,.05,0,0,0,.06,0,0,.05.1,0,0,.15.31,0,.05,0,.11,0,0,0,.05,0,.06,0,0a1.66,1.66,0,0,0,.06.16l0,.05a1.8,1.8,0,0,0,.08.21l0,.05.07.16,0,.06,0,0,0,.11,0,0,.05.16,0,.06,0,0v.05l.06.17,0,.05,0,.11,0,.05,0,.06,0,.11,0,0c0,.11.07.22.1.33v.06l0,.11v.05l0,.06v0l0,.06c0,.18.09.37.13.55v.06l0,.11,0,.11,0,.06.09.51v.22l0,.12v0l.06.4v.06l0,.11v.12l0,.17v0l0,.29v.46l0,.4v1.28l0,.4v.29l0,.18v.23c-1.39,13.69-3.33,32.62-4.69,46.22v0l0,.05,0,0,0,0,0,0,0,0L54,66,54,66H50.87l0,0-.06,0,0,0,0,0,0,0,0,0,0,0v-.11C51.74,54.18,53.77,33.55,54.91,22V19.9l0-.44V19l0-.22v-.43c0-.11,0-.22,0-.33v0l0-.06,0-.16V17.5l0-.1v-.06c0-.12-.05-.25-.07-.37l0-.06,0-.1V16.7l0-.11v-.05c0-.14-.08-.28-.11-.42l0-.05,0-.11,0-.05v-.05l0-.06v-.05c-.06-.17-.11-.35-.17-.52l0-.05,0-.11,0-.1v-.05l0-.1,0-.05-.09-.26,0,0c0-.05,0-.11-.05-.15l0-.05V14.2l0-.1,0,0-.06-.15,0-.05,0,0a2.72,2.72,0,0,0-.11-.25l0-.05,0-.1,0-.1,0-.05,0,0,0-.05c-.06-.12-.12-.23-.17-.35l0-.05,0-.09,0-.05,0,0,0-.05,0,0-.06-.09,0-.05L52.63,12l0,0-.05-.09,0-.05,0,0,0-.05,0-.05-.09-.14,0,0a.67.67,0,0,0-.09-.14l0-.05-.12-.18L52,11l0,0,0-.05,0,0,0-.05,0,0-.16-.23,0,0,0,0-.13-.17,0-.05-.07-.08-.07-.09,0,0L51.25,10l0,0L51,9.62l0,0-.07-.08,0,0,0,0,0-.05,0,0,0,0,0,0-.1-.11-.06-.06,0-.06L50,8.52l-.13-.12-.06-.06-.44-.41a1.54,1.54,0,0,1-.19-.17l-.46-.38-.13-.1-.14-.11-.47-.35-.21-.15-.28-.19-.21-.13-.29-.18-.15-.09L46.58,6l-.3-.17L46,5.62l-.29-.15-.46-.22A16.53,16.53,0,0,0,41.3,4l-.07,0-.08,0-.06,0L41,3.83l0-.06,0-.07,0-.08V.51Zm.89,2.43h0v.24a17.49,17.49,0,0,1,3.52,1.16l.32.15q.36.16.72.36l.31.17.15.08.54.32.15.1.15.09.22.15.29.2.22.15c.07,0,.15.12.22.16l.28.22,0,0h0l.21.17.21.17.27.23.2.18.07.06.07.06.32.31.2.19.12.12.07.07a1.7,1.7,0,0,0,.19.19l.06.07.06.07.06.06.06.07.06.07,0,0c.14.16.29.32.42.49l0,0,0,.05,0,0,0,.05,0,0,0,0c.05.05.1.12.15.18l0,.05,0,0,0,.05,0,0,.1.14,0,.05,0,0,0,0,0,0,0,.05,0,0,.1.15,0,0,0,0,0,.05,0,.05.13.19,0,0,0,.05,0,.05,0,0,.06.1,0,.05c.07.13.16.26.24.39l0,0,.06.1,0,.05,0,.05.05.1,0,0,.22.41,0,.05.05.1,0,.05,0,.06.05.1,0,0c.07.15.15.31.22.47l0,.05,0,0,0,.05,0,.06,0,.05,0,.05c.07.18.15.36.22.53l0,.05,0,.06,0,.05,0,.06,0,.1,0,.06.13.37,0,.06,0,.11V15l0,.06,0,.05,0,.06.06.21,0,.06,0,.05c0,.07,0,.16.06.22l0,.06v0l0,.06v.05l0,.06V16c0,.14.08.29.11.44v.06l0,.11v.11l0,.11v.06c0,.13,0,.26.08.39v.06l0,.11v.12l0,.11v.06l.06.39v.35l0,.17v.06l0,.17v.57l0,.35v1.27l0,.35v.41c-1.18,11.72-3.25,31.88-4.42,43.46h2.32L53.85,63h0c1.26-12.58,3.08-31,4.33-43.68V18.9l0-.5V17.18l0-.39v-.38l0-.22v-.66c0-.16,0-.32-.08-.48v-.17l0-.1v-.06l0-.11v0l-.06-.27v0l0-.11,0-.05v-.16l0-.11v-.05l-.1-.37v-.05l0-.11,0-.05v0l0-.11,0,0c0-.14-.08-.28-.13-.42l0-.05,0-.1,0-.06v-.05l0-.1,0,0c-.06-.15-.11-.31-.17-.46l0,0,0-.11,0,0,0-.05,0-.1v-.05l-.18-.4,0,0,0-.1,0-.05,0-.05,0-.1,0,0c-.08-.16-.17-.32-.25-.49l0,0,0,0,0-.05,0-.05,0,0,0-.05-.1-.19,0-.05,0,0,0-.05,0,0a1,1,0,0,1-.08-.14l0-.05L55.8,9l-.06-.09,0,0-.06-.09,0-.05c-.06-.09-.13-.19-.18-.28l0,0-.06-.1,0,0,0,0,0,0,0,0,0,0,0,0L55,7.84l0,0,0,0-.13-.18,0,0,0,0,0,0,0,0,0-.05,0,0-.07-.09,0,0a2.65,2.65,0,0,1-.21-.26l0,0-.11-.12,0,0,0,0,0,0,0,0-.07-.09,0,0L53.46,6l0,0-.08-.08,0,0,0,0-.05,0,0,0,0,0,0,0L53,5.59l0,0-.49-.44h0l0,0L52.37,5l0,0,0,0,0,0,0,0,0,0,0,0L52,4.71l0,0-.13-.1,0,0-.26-.2-.05,0-.22-.16,0,0,0,0,0,0L51.07,4,51,3.92l0,0,0,0,0,0-.09-.06,0,0-.28-.18,0,0,0,0-.28-.17L50,3.3l-.14-.08-.14-.08,0,0,0,0L49.53,3l0,0-.05,0,0,0-.1-.06,0,0L49.1,2.8l-.05,0-.54-.26,0,0-.19-.09-.06,0,0,0L48,2.29l-.11,0,0,0,0,0-.05,0,0,0-.1,0-.15-.06-.1,0,0,0c-.38-.14-.76-.27-1.14-.38L46,1.57H45.9l0,0a17.05,17.05,0,0,0-4-.59h0Zm-.44-2Z" transform="translate(0.78 -0.06)" style="fill:#373737;fill-rule:evenodd"/><rect x="42.17" y="65.59" width="6.65" height="33.83" style="fill:#72605c"/><path d="M48.19,65.23l.07,0,.06,0,.06,0,0,.07,0,.07,0,.07v.08c0,10.13-.08,23.68-.1,33.83v.12l0,.05,0,0,0,0h0l0,0-.06,0-.06,0H41.27l-.05,0,0,0,0,0h0l0,0,0-.05,0-.06v-.06c0-10.36,0-23.43-.09-33.83v-.07l0-.07,0-.07,0-.06,0,0h0l.06,0,.07,0,.07,0h.08l6.3,0h.42ZM41.8,67.71c0,7.68-.06,19-.07,26.63h0v4.8h6c0-9.92-.07-23.16-.1-33.06H41.81Z" transform="translate(0.78 -0.06)" style="fill:#373737;fill-rule:evenodd"/><path d="M48,68.69,43.72,73" transform="translate(0.78 -0.06)" style="fill-rule:evenodd;fill:url(#linear-gradient-2)"/><path d="M48.35,68.37h0l.12.32-.12.32h0c-.49.44-1.17,1.07-1.65,1.52l-.58.56c-.67.68-1.43,1.52-2.06,2.22h0l-.31.12-.32-.13h0L43.28,73l.12-.3h0c.7-.63,1.55-1.39,2.22-2.05s1.44-1.53,2.1-2.26l.31-.13Z" transform="translate(0.78 -0.06)" style="fill:#373737;fill-rule:evenodd"/><path d="M48,74.55l-4.31,4.31" transform="translate(0.78 -0.06)" style="fill-rule:evenodd;fill:url(#linear-gradient-3)"/><path d="M48.35,74.23h0l.12.32-.12.32h0c-.49.44-1.17,1.07-1.65,1.52L46.1,77c-.67.68-1.43,1.52-2.06,2.22h0l-.31.12-.32-.13h0l-.13-.32.12-.3h0c.7-.64,1.55-1.4,2.22-2.06s1.44-1.53,2.1-2.26L48,74.1Z" transform="translate(0.78 -0.06)" style="fill:#373737;fill-rule:evenodd"/><path d="M48,80.41l-4.31,4.31" transform="translate(0.78 -0.06)" style="fill-rule:evenodd;fill:url(#linear-gradient-4)"/><path d="M48.35,80.09h0l.12.32-.12.32h0c-.49.44-1.17,1.07-1.65,1.52l-.58.56c-.67.68-1.43,1.52-2.06,2.22h0l-.31.13L43.41,85h0l-.13-.31.12-.31h0c.7-.64,1.55-1.4,2.22-2.06s1.44-1.53,2.1-2.26L48,80Z" transform="translate(0.78 -0.06)" style="fill:#373737;fill-rule:evenodd"/><path d="M48,86.27l-4.31,4.32" transform="translate(0.78 -0.06)" style="fill-rule:evenodd;fill:url(#linear-gradient-5)"/><path d="M48.35,86h0l.12.32-.12.32h0l-1.65,1.52-.58.56c-.67.68-1.43,1.52-2.06,2.22h0l-.31.13-.32-.14h0l-.13-.31.12-.31h0c.7-.64,1.55-1.4,2.22-2.06s1.44-1.53,2.1-2.26l.31-.13Z" transform="translate(0.78 -0.06)" style="fill:#373737;fill-rule:evenodd"/><path d="M48,92.13l-4.31,4.32" transform="translate(0.78 -0.06)" style="fill-rule:evenodd;fill:url(#linear-gradient-6)"/><path d="M48.35,91.81h0l.12.32-.12.32h0l0,0c-.49.44-1.17,1.06-1.65,1.51-.15.14-.44.42-.58.57-.67.67-1.43,1.51-2.06,2.21h0l-.31.12-.32-.14h0l-.13-.31.12-.31h0c.7-.64,1.55-1.4,2.22-2.06s1.44-1.53,2.1-2.26l.31-.13Z" transform="translate(0.78 -0.06)" style="fill:#373737;fill-rule:evenodd"/></svg>