<svg id="Layer_1" data-name="Layer 1" xmlns="http://www.w3.org/2000/svg" xmlns:xlink="http://www.w3.org/1999/xlink" viewBox="0 0 98.05 99.76"><defs><linearGradient id="linear-gradient" y1="100" x2="1" y2="100" gradientTransform="matrix(17.26, 0, 0, -65.15, 41.39, 6547.74)" gradientUnits="userSpaceOnUse"><stop offset="0" stop-color="#75787c"/><stop offset="1" stop-color="#acadb0"/></linearGradient><linearGradient id="linear-gradient-2" x2="1" gradientTransform="matrix(4.32, 0, 0, -4.32, 43.72, 502.36)" xlink:href="#linear-gradient"/><linearGradient id="linear-gradient-3" x2="1" gradientTransform="matrix(4.32, 0, 0, -4.32, 43.72, 508.22)" xlink:href="#linear-gradient"/><linearGradient id="linear-gradient-4" x2="1" gradientTransform="matrix(4.32, 0, 0, -4.32, 43.72, 514.08)" xlink:href="#linear-gradient"/><linearGradient id="linear-gradient-5" x2="1" gradientTransform="matrix(4.32, 0, 0, -4.32, 43.72, 519.94)" xlink:href="#linear-gradient"/><linearGradient id="linear-gradient-6" x2="1" gradientTransform="matrix(4.32, 0, 0, -4.32, 43.72, 525.8)" xlink:href="#linear-gradient"/></defs><path d="M58.56,19.49A17.25,17.25,0,0,0,41.39.51h0V65.65H53.93S56.63,38.72,58.56,19.49Z" transform="translate(-1.15 -0.06)" style="fill-rule:evenodd;fill:url(#linear-gradient)"/><path d="M58.16,27.82,56.09,48l-1.8,17.72v.06l0,0,0,.06,0,0,0,0h0l0,0L54,66H41.33l-.06,0-.06,0-.05,0,0,0h0l0,0,0-.06,0-.06V28.34L41,6.76,41,.51V.44l0-.07,0-.06,0-.06,0,0,0,0,.06,0,.07,0h3.3l.05,0h.4l0,0h.17l.06,0h.17l0,0h.06l.06,0h.1l.06,0h.06l.05,0H46l0,0h.06l0,0h.06l0,0h.06l0,0,.06,0h0l.06,0,0,0h.06l0,0,.06,0,.05,0h.06L47,1l0,0,.06,0,0,0h.06l0,0,.06,0,0,0,.05,0,.06,0,.05,0,.06,0,.05,0,0,0,.05,0,.06,0,.05,0,.06,0,.05,0,0,0,.06,0,0,0,.05,0,0,0,.06,0,0,0,.05,0,.06,0,.05,0,0,0,0,0,.06,0,0,0,.05,0,0,0,.05,0,.06,0,.05,0,0,0,.05,0,0,0,.06,0,0,0,0,0,.05,0,0,0,.05,0,0,0,0,0,.05,0,.06,0,0,0,0,0,.05,0,0,0,.05,0,0,0,0,0,.05,0,0,0,.05,0,0,0,0,0,.05,0,0,0,.05,0,0,0,0,0,.05,0,0,0,0,0,.05,0,0,0,0,0,.05,0,0,0,.05,0,0,0,0,0L51,3l0,0,0,0,.05,0,0,0,0,0,.05,0,0,0,0,0,.05,0,0,0,0,0,0,0,0,0,0,0,0,0,.05,0,0,0,0,0,.05,0,0,0,0,0,.05,0,0,0,0,0,.05,0,0,0,0,0,0,0,.05,0,0,0,0,0,0,0,.05,0,0,0,0,0,0,0,.05,0,0,0,0,0,0,0,0,0,.05,0,0,0,0,0,.05,0,0,0,0,0,0,0,0,0,0,0,.05,0,0,0,0,0,0,0,0,0,0,0,0,0,0,0,0,0,0,0,0,0,0,0,0,0,0,0,0,0,0,0L54,5.4l0,0,0,0,0,0,0,0,0,.05,0,0,0,0,0,0,0,0,0,0,0,0,0,0,0,0,0,0,0,0,0,0,0,0,0,0,0,0,0,0,0,0,0,0,0,0,0,0,0,.05,0,0,0,.05,0,0,0,0,0,0,0,0,0,0,0,0,0,0,0,0,0,.05,0,0,0,.05,0,0,0,0,0,0,0,0,0,0,0,0,0,0,0,.05,0,0,0,0,0,0,0,0,0,0,0,.05,0,0,0,.05,0,0,0,0,0,0,0,0,0,.05,0,0,0,.05,0,.05,0,0,0,.05,0,0,0,.05,0,0,0,.05,0,.05,0,0,0,.05,0,0,0,.05,0,0,0,.05,0,.05,0,0,0,.05,0,0,0,.05,0,.05,0,0,0,.05,0,.06,0,0,0,.05,0,0,0,.05,0,.05,0,0,0,.05,0,0,0,.05,0,.05,0,.06,0,.05,0,.05,0,0,0,.05,0,0,0,.05,0,.06,0,0,0,.05,0,0,0,.05,0,.06,0,0,0,.05,0,.05,0,.06,0,.05,0,0,0,.05,0,.06,0,0,0,.05,0,.06,0,0,0,.05,0,.06,0,0,0,.05,0,.06,0,0,0,.05,0,.06,0,.05,0,.05,0,.06,0,.05,0,.06,0,0v.05l0,.06,0,0,0,.06,0,.05,0,0,0,.06,0,0v.06l0,.05,0,.06v0l0,.06,0,0,0,.06v.05l0,.06v.05l0,.06,0,0V13l0,.05v.06l0,.05v.06l0,0v.06l0,.05v.12l0,.05v.06l0,.05v.11l0,.06V14l0,.05v.4l0,0v5Zm0-8.49v-.48h0V14.19l0,0v-.21l0,0v-.11l0,0v-.16l0-.06v-.1l0-.05v-.06l0,0v-.05l0,0v-.06l0-.05v0l0-.05v-.06l0,0,0-.05v0l0-.05,0-.06v0l0-.05,0,0v-.05l0-.05,0-.06,0-.05V12.2l0,0,0-.05,0,0,0-.06,0-.05v0l0-.05,0-.05,0,0,0-.05,0,0,0-.05,0-.05,0,0,0-.06,0,0,0-.05,0-.05,0,0,0-.05,0,0,0-.05,0-.05,0,0,0-.05,0,0,0-.05,0-.05,0,0,0-.05,0,0,0-.05,0-.05,0,0,0-.05,0,0,0-.05,0-.05,0,0,0-.05,0,0,0-.05,0-.05,0,0,0-.05,0,0,0-.05,0,0,0-.05,0,0,0-.05,0-.05,0,0,0-.05,0,0,0-.05,0-.05,0,0,0,0,0,0,0-.05,0,0,0,0,0-.05,0,0,0,0,0,0,0-.05,0,0,0-.05,0,0,0,0,0-.05,0,0,0,0,0,0,0,0,0,0,0-.05,0,0,0-.05,0,0,0-.05,0,0,0,0,0,0,0,0,0,0,0-.05,0,0,0,0,0,0,0,0,0,0,0,0,0,0,0,0,0,0,0,0,0,0,0,0,0,0,0-.05,0,0,0,0,0-.05,0,0,0,0,0,0,0,0,0,0,0,0,0,0,0,0,0,0,0,0,0,0,0,0,0,0,0,0,0,0,0,0,0,0,0,0,0,0,0,0,0,0,0,0,0,0,0,0,0,0,0,0,0,0,0,0,0,0,0,0,0,0,0,0,0,0,0,0,0,0,0,0,0,0,0,0-.05,0h0l0,0,0,0,0,0,0,0,0,0,0,0,0,0,0,0,0,0,0,0,0,0,0,0,0,0-.05,0,0,0,0,0,0,0,0,0,0,0,0,0,0,0,0,0,0,0,0,0,0,0,0,0,0,0,0,0,0,0-.05,0,0,0,0,0,0,0,0,0,0,0-.05,0,0,0,0,0,0,0-.05,0,0,0,0,0-.05,0,0,0,0,0,0,0-.05,0,0,0,0,0,0,0-.05,0,0,0,0,0,0,0-.05,0,0,0,0,0-.05,0,0,0,0,0,0,0,0,0,0,0,0,0,0,0,0,0,0,0,0,0-.05,0,0,0-.05,0,0,0,0,0-.05,0,0,0,0,0,0,0-.05,0,0,0,0,0-.05,0,0,0-.05,0,0,0,0,0-.05,0,0,0,0,0-.05,0,0,0,0,0-.05,0,0,0,0,0-.05,0,0,0-.05,0,0,0,0,0-.05,0,0,0-.05,0,0,0,0,0,0,0-.06,0-.05,0,0,0-.06,0-.05,0,0,0-.05,0,0,0,0,0-.05,0,0,0-.05,0,0,0,0,0-.05,0,0,0h-.05l0,0-.06,0,0,0-.05,0,0,0,0,0-.05,0,0,0H46.9l0,0-.05,0,0,0h0l-.06,0,0,0-.05,0h0l-.05,0,0,0h-.06l0,0h-.05l0,0h-.06l0,0,0,0H46l-.06,0h-.1l-.06,0h0l-.05,0h-.11l0,0h-.11l-.05,0h-.11l0,0H45l-.05,0H41.78V7.09l0,21.17v30.8h0V65.3H53.59l1.77-17.86,2-19.84.8-8.14v-.12Z" transform="translate(-1.15 -0.06)" style="fill:#373737;fill-rule:evenodd"/><path d="M41.39,3.54v-3h0a17.25,17.25,0,0,1,17.17,19c-1.93,19.23-4.63,46.16-4.63,46.16h-3l4.36-43.43A17.26,17.26,0,0,0,41.39,3.54Z" transform="translate(-1.15 -0.06)" style="fill:#bdbdbd;fill-rule:evenodd"/><path d="M40.94.51V.43l0-.08,0-.07,0-.06L41.1.16l.06,0,.07,0,.08,0H45l.06,0h.22l.06,0h.11l.06,0h.11l.06,0h0l.06,0h0l.06,0H46l.06,0,0,0h.06l0,0h.06l0,0h.06l0,0,.06,0h.05l.06,0,.05,0,.06,0h.05l.06,0,.05,0,.06,0H47L47,1l0,0,0,0,.06,0,0,0,.06,0,.05,0,0,0h.06l0,0,.06,0,0,0,0,0,.06,0,.05,0,0,0,.06,0,0,0,0,0,.05,0,.06,0,0,0,.06,0,0,0,0,0,.05,0,.06,0,.05,0,0,0,.05,0,.06,0,.05,0,0,0,.05,0,0,0,0,0,.06,0,0,0,.05,0,0,0,.05,0,.06,0,.05,0,0,0,.05,0,0,0,0,0,.05,0,0,0,.05,0,.06,0,0,0,.06,0,0,0,.05,0,0,0,.05,0,0,0,0,0,.05,0,0,0,.05,0,0,0,0,0,.06,0,0,0,0,0,.05,0,0,0,.05,0,0,0,0,0,.05,0,0,0,0,0,.05,0,0,0,0,0,.05,0,0,0,0,0,.05,0,0,0,.05,0,0,0,0,0,0,0,.05,0,0,0,0,0,.05,0,0,0,0,0,.05,0,0,0,0,0,.05,0,0,0,0,0,.05,0,0,0,0,0,0,0,.05,0,0,0,0,0,.05,0,0,0,0,0,0,0,.05,0,0,0,0,0,0,0,0,0,.05,0,0,0,0,0,0,0,0,0,.05,0,0,0,0,0,.05,0,0,0,0,0,0,0,0,0,0,0,.05,0,0,0,0,0,0,0,0,0,0,0,0,0,0,0,0,0,0,0,0,0,0,0,0,0,0,0,0,0,0,.05.05,0,0,0,0,0,0,0,0,.05,0,0,0,0,0,0,0,0,0,0,0,0,0,0,0,0,0,0,0,0,0,0,0,0,0,0,0,0,0,0,0,0,0,0,0,0,0,0,0,.05,0,0,0,0,0,0,0,0,0,0,0,0,0,0,0,0,0,0,0,0,0,.05,0,0,0,0,0,0,0,0,0,0,0,0,0,0,0,0,0,.05,0,0,0,0,0,0,0,0,0,0,0,0,0,.05,0,0,0,0,0,0,0,0,0,0,0,0,0,0,0,.05,0,0,0,.05,0,.05,0,0,0,.05,0,0,0,.05,0,.05,0,0,0,.05,0,0,0,.05,0,.05,0,0,0,.05,0,0,0,0,0,0,0,.05,0,.05,0,0,0,.06,0,.05,0,0,0,.05,0,0,0,.05,0,.05,0,0,0,.05,0,0,0,.05,0,.05,0,0,0,.06,0,0,0,.05,0,.05,0,0,0,.05,0,0,0,.06,0,.05,0,0,0,.05,0,.05,0,.06,0,.05,0,0,0,.05,0,.06,0,0,0,.05,0,.05,0,.06,0,.05,0,.05,0,0,0,.06,0,0,0,.05,0,.06,0,0,0,.05,0,.06,0,0,0,.05,0,.06,0,0,0,.05,0,.06v0l0,.06,0,0v.05l0,.06,0,0,0,.06,0,.05v.06l0,.05,0,.05,0,.06,0,.05v.06l0,0,0,.06v.05l0,.06,0,.05v.06l0,0v.06l0,.05,0,.06v.05l0,.06v0l0,.06v.11l0,.05v.12l0,.05v.11l0,.06v.11l0,.06v.16l0,.06v5.4l-.3,3-2.15,21-1,10.33-1,9.8-.2,2v0l0,.05,0,0,0,0,0,0,0,0L54,66,54,66H50.87l0,0-.06,0,0,0,0,0,0,0,0,0,0,0v-.11l.46-4.57,1.18-11.9,2.43-24.62.23-2.35V17.94l0-.06V17l0-.06V16.7l0-.05v-.11l0-.05v-.11l0-.05v-.11l0,0v-.05l0-.05V16l0-.05v-.05l0-.06v-.05l0-.05,0,0v-.06l0-.05,0,0v-.05l0-.06,0-.05v-.05l0,0,0-.05v0l0-.06,0-.05,0,0v-.05l0-.05,0,0,0-.05,0-.06,0-.05,0-.05,0,0v-.05l0,0,0-.05v-.05l0,0,0-.05V14.2l0,0,0-.05,0,0,0-.05,0-.05,0,0,0-.05,0,0,0-.05,0-.05,0,0,0-.05,0,0,0-.05,0-.05,0,0,0-.05,0,0,0-.05,0,0,0-.05,0-.05,0,0,0-.05,0,0,0-.05,0-.05,0,0,0-.05,0,0,0-.05,0-.05,0,0,0-.05,0,0,0,0,0,0,0-.05,0-.05,0,0,0-.05,0,0,0-.05,0-.05,0,0,0-.05,0,0,0,0,0,0,0-.05,0,0,0-.05,0-.05,0,0,0-.05,0,0,0,0,0,0,0-.05,0,0,0-.05,0,0,0-.05,0-.05,0,0L52,11l0,0,0-.05,0,0,0-.05,0,0,0-.05,0,0,0-.05,0,0,0,0,0,0,0,0,0,0,0,0,0-.05,0,0,0-.05,0,0,0,0,0,0,0,0,0,0,0-.05,0,0,0,0,0-.05,0,0,0,0,0,0,0,0,0,0,0,0,0,0,0,0,0,0,0,0,0,0,0-.05,0,0,0,0,0,0,0,0-.06-.07-.06-.06,0-.06L50.37,9l-.06-.07-.06-.06-.06-.06-.06-.06-.06-.06L50,8.58,50,8.52l-.07-.06-.06-.06-.06-.06-.06-.06-.07-.06-.06-.06-.06-.06-.06,0L49.38,8l-.06-.06-.06,0-.07-.06-.06-.06-.07,0L49,7.65l-.07-.05-.06-.06-.07,0-.06,0-.07-.06-.07,0-.06,0-.07,0,0,0-.05,0-.07,0-.06,0L48.2,7l-.07,0-.07,0-.07,0-.06,0-.08-.05-.06,0-.07,0-.07,0-.07,0-.07,0-.07,0-.07,0-.07-.05-.07,0-.08,0-.07,0-.07,0-.07,0-.07,0-.08,0-.07,0-.07,0-.07,0-.08,0-.07,0-.07,0-.08,0-.07,0-.08,0-.07,0-.08,0-.07,0-.07,0-.08,0-.07,0-.08,0-.08,0-.07,0-.08,0-.07,0-.08,0-.08,0-.08,0-.07,0-.08,0-.08,0-.07,0-.08,0-.08,0-.08,0-.07,0-.08,0-.08,0-.08,0-.08,0-.08,0-.08,0-.07,0-.08,0-.08,0-.08,0-.08,0-.08,0-.08,0-.08,0-.08,0-.08,0-.08,0-.09,0-.08,0-.08,0-.08,0-.08,0-.08,0-.08,0-.08,0-.09,0-.08,0-.08,0-.08,0-.08,0-.09,0-.08,0-.08,0-.08,0-.09,0h-.08l-.08,0-.09,0H41.3l-.07,0-.08,0-.06,0L41,3.83l0-.06,0-.07,0-.08V.51Zm.89,2.43h0v.24h.07l.09,0,.08,0,.09,0,.09,0,.08,0,.09,0,.09,0,.08,0,.09,0,.08,0,.09,0,.08,0,.09,0,.08,0,.09,0,.09,0,.08,0,.09,0,.08,0,.08,0,.09,0,.08,0,.09,0,.08,0,.08,0,.09,0,.08,0,.09,0,.08,0,.08,0,.08,0,.08,0,.09,0,.08,0,.08,0,.08,0,.08,0,.09,0,.08,0,.08,0,.08,0,.08,0,.08,0,.08,0,.08,0,.08,0,.08,0,.08,0,.08,0,.08,0,.08,0,.08,0,.08,0,.08,0,.07,0,.08,0,.08,0,.08,0,.07,0,.08,0,.08.05.08,0,.07,0,.08,0,.07,0,.08,0,.08,0,.07,0,.08,0,.07,0,.08.05.07,0,.07,0,.08,0,.07,0,.08.05.07,0,.07,0,.08,0,.07,0,.07.05.07.06.07,0,.08,0,.07.06.07,0,.07,0,.07.06,0,0h0l.07.06.07.05.07.06.07.06.07.05.07.06.07.06.07.06.06,0,.07.06.07.06.07.06.06.06.07.06.07.06.06.06.07.06.06.06.07.07.06.06.07.06.06.06.07.07.06.06.06.06.07.07.06.06.06.07.07.06.06.07.06.07.06.06.06.07.06.07,0,0,0,0,0,0,0,0,0,0,0,.05,0,0,0,.05,0,0,0,.05,0,0,0,.05,0,0,0,.05,0,0,0,.05,0,0,0,0,0,0,0,0,0,0,0,0,0,.05,0,0,0,.05,0,0,0,.05,0,.05,0,0,0,.05,0,0,0,0,0,0,0,.05,0,0,0,0,0,.05,0,0,0,0,0,0,0,.05,0,.05,0,0,0,0,0,0,0,.05,0,0,0,.05,0,.05,0,0L53,11l0,0,0,.05,0,.05,0,0,0,.05,0,0,0,.05,0,.05,0,0,0,.05,0,0,0,.05,0,0,0,.05,0,.05,0,0,0,.05,0,0,0,.05,0,.05,0,.06,0,.05,0,.05,0,0,0,.05,0,0,0,.05,0,.05,0,0,0,.05,0,.06,0,.05,0,.05,0,0,0,.05,0,0,0,.05,0,.06,0,0,0,.05,0,.05,0,0,0,.06,0,.05,0,0,0,.05,0,.06,0,.05,0,.05,0,0,0,.06,0,.05,0,0,0,.06,0,0,0,.05,0,.05,0,.06,0,.05,0,.05,0,.06,0,.05,0,.06,0,0,0,.05,0,.06,0,0,0,.05,0,.06,0,.05v.06l0,0,0,.05,0,.06,0,0,0,.06V15l0,.06,0,.05,0,.06v0l0,.05,0,.06v0l0,.06,0,.05v.06l0,.05,0,.06v0l0,.06v0l0,.06v.05l0,.06V16l0,.05v.11l0,.06v.11l0,0v.12l0,.05v.23l0,.05v.4l0,.05v.12l0,0v4.79l-.24,2.3L53,48.68,51.8,60.35l-.5,5h2.32L53.85,63h0l1-9.66,1-10.17,2-20.7.3-3V14.88l0-.05v-.11l0-.05v-.11l0-.05v-.38l0-.05v-.16l0-.05v-.16l0-.06V13.6l0,0v-.11l0,0v-.05l0-.06v0l0-.05v0l0-.06V13l0,0v-.05l0-.06,0,0v-.05l0,0v-.05l0-.06,0,0,0-.05v-.05l0,0,0-.06v-.05l0,0,0-.05,0,0,0-.05,0-.06,0,0,0-.05v0l0-.05,0-.05,0,0,0-.05,0,0,0-.05,0-.06,0,0,0-.05,0-.05,0,0v-.05l0,0,0-.05,0-.05,0,0,0-.05,0,0,0-.05,0-.05,0,0,0-.05,0,0,0-.05,0-.05,0,0,0-.05,0,0,0-.05,0,0,0-.05,0-.05,0,0,0-.05,0,0,0-.05,0-.05,0,0,0,0,0,0,0-.05,0-.05,0,0,0-.05,0,0,0-.05,0,0,0-.05,0-.05,0,0,0-.05,0,0,0-.05,0,0,0-.05,0-.05,0,0,0-.05,0,0,0,0,0,0,0-.05,0,0,0-.05,0-.05,0,0,0-.05,0,0,0,0,0,0,0,0,0,0,0-.05,0,0,0,0,0,0,0,0,0,0,0,0,0,0,0,0,0,0,0,0,0,0,0,0,0,0,0,0,0,0,0,0,0,0,0,0,0,0,0,0,0,0,0-.05,0,0,0,0,0,0,0,0,0,0,0,0,0,0,0,0,0,0,0,0,0,0,0,0,0,0,0,0,0,0,0,0,0,0,0,0,0,0,0,0,0,0,0,0,0,0,0,0,0,0,0,0,0,0,0,0,0,0,0,0,0,0,0,0,0,0,0,0,0,0,0,0,0,0-.05,0,0,0,0,0,0,0,0,0,0,0,0,0,0,0,0,0,0,0,0,0,0,0,0,0,0,0,0,0,0,0,0,0,0,0,0,0h0l0,0,0,0,0,0,0,0,0,0,0,0,0,0,0,0,0,0,0,0,0,0,0,0,0,0-.05,0,0,0,0,0,0,0,0,0,0,0,0,0,0,0,0,0-.05,0,0,0,0,0,0,0,0,0-.05,0,0,0,0,0,0,0,0,0,0,0,0,0,0,0,0,0,0,0,0,0,0,0,0,0,0,0-.05,0,0,0,0,0,0,0-.05,0,0,0,0,0,0,0-.05,0,0,0,0,0-.05,0,0,0,0,0L50,3.3l0,0,0,0-.05,0,0,0,0,0,0,0,0,0,0,0-.05,0,0,0,0,0-.05,0,0,0,0,0-.05,0,0,0,0,0-.05,0,0,0-.05,0,0,0,0,0-.05,0,0,0,0,0-.05,0,0,0-.05,0,0,0,0,0-.05,0,0,0-.05,0,0,0,0,0,0,0-.06,0,0,0-.06,0,0,0,0,0-.06,0-.05,0,0,0,0,0-.05,0,0,0-.05,0,0,0,0,0-.05,0,0,0-.05,0,0,0,0,0-.05,0L47.2,2l-.05,0h0l-.05,0,0,0,0,0-.05,0h-.06l-.05,0,0,0-.05,0h0l-.06,0,0,0h-.05l0,0-.06,0h0l0,0h-.05l0,0h-.06l0,0H46l0,0H45.9l0,0H45.8l0,0h-.11l0,0h-.11l0,0h-.11l0,0h-.22l0,0H41.83Zm-.44-2Z" transform="translate(-1.15 -0.06)" style="fill:#373737;fill-rule:evenodd"/><rect x="40.23" y="65.59" width="40" height="40" style="fill:#72605c"/><path d="M48.19,65.23l.07,0,.06,0,.06,0,0,.07,0,.07,0,.07v4.51l0,10.77,0,13.34V99.6l0,.05,0,0,0,0h0l0,0-.06,0-.06,0H41.27l-.05,0,0,0,0,0h0l0,0,0-.05,0-.06V89.21l0-11.56,0-10.73V65.58l0-.07,0-.07,0-.06,0,0h0l.06,0,.07,0,.07,0h.08l6.3,0h.42ZM41.8,67.71l0,10.17,0,11v5.43h0v4.8h6V93.52l0-13L47.6,70V66.08H41.81Z" transform="translate(-1.15 -0.06)" style="fill:#373737;fill-rule:evenodd"/><path d="M48,68.69,43.72,73" transform="translate(-1.15 -0.06)" style="fill-rule:evenodd;fill:url(#linear-gradient-2)"/><path d="M48.35,68.37h0l.12.32-.12.32h0l-.44.41L47.3,70l-.62.58-.3.29-.28.27-.3.31-.33.34-.67.73-.54.6-.22.24h0l-.31.12-.32-.13h0L43.28,73l.12-.3h0l.25-.22.59-.53.73-.68.35-.33.3-.29.28-.29.29-.3.58-.62.53-.58.4-.45,0,0h0l.31-.13Z" transform="translate(-1.15 -0.06)" style="fill:#373737;fill-rule:evenodd"/><path d="M48,74.55l-4.31,4.31" transform="translate(-1.15 -0.06)" style="fill-rule:evenodd;fill:url(#linear-gradient-3)"/><path d="M48.35,74.23h0l.12.32-.12.32h0l-.44.41-.59.53-.62.58-.3.29L46.1,77l-.3.31-.33.34-.67.73-.54.6-.22.24h0l-.31.12-.32-.13h0l-.13-.32.12-.3h0l.25-.23.59-.53.73-.68.35-.33.3-.29.28-.29.29-.3.58-.62.53-.58.4-.45,0,0h0L48,74.1Z" transform="translate(-1.15 -0.06)" style="fill:#373737;fill-rule:evenodd"/><path d="M48,80.41l-4.31,4.31" transform="translate(-1.15 -0.06)" style="fill-rule:evenodd;fill:url(#linear-gradient-4)"/><path d="M48.35,80.09h0l.12.32-.12.32h0l-.44.41-.59.53-.62.58-.3.29-.28.27-.3.31-.33.34-.67.73-.54.6L44,85h0l-.31.13L43.41,85h0l-.13-.31.12-.31h0l.25-.22.59-.54L45,83l.35-.33.3-.29.28-.29.29-.3.58-.62.53-.58.4-.45,0,0h0L48,80Z" transform="translate(-1.15 -0.06)" style="fill:#373737;fill-rule:evenodd"/><path d="M48,86.27l-4.31,4.32" transform="translate(-1.15 -0.06)" style="fill-rule:evenodd;fill:url(#linear-gradient-5)"/><path d="M48.35,86h0l.12.32-.12.32h0l-.44.41-.59.53-.62.58-.3.29-.28.27-.3.31-.33.34-.67.73-.54.6L44,90.9h0l-.31.13-.32-.14h0l-.13-.31.12-.31h0l.25-.22.59-.54.73-.68.35-.33.3-.29.28-.28.29-.31.58-.62.53-.58.4-.45,0,0h0l.31-.13Z" transform="translate(-1.15 -0.06)" style="fill:#373737;fill-rule:evenodd"/><path d="M48,92.13l-4.31,4.32" transform="translate(-1.15 -0.06)" style="fill-rule:evenodd;fill:url(#linear-gradient-6)"/><path d="M48.35,91.81h0l.12.32-.12.32h0l0,0-.44.4-.59.53-.62.58-.3.29-.28.28-.3.3-.33.35-.67.72-.54.6-.22.24h0l-.31.12-.32-.14h0l-.13-.31.12-.31h0l.25-.22.59-.54.73-.68.35-.33.3-.29.28-.28.29-.31.58-.62.53-.58.4-.45,0,0h0l.31-.13Z" transform="translate(-1.15 -0.06)" style="fill:#373737;fill-rule:evenodd"/><rect x="0.72" y="0.89" width="40" height="40" style="fill:none"/><rect y="1.75" width="40" height="40" style="fill:none"/></svg>