<?xml version="1.0" encoding="UTF-8" standalone="no"?>
<!DOCTYPE svg PUBLIC "-//W3C//DTD SVG 1.1//EN" "http://www.w3.org/Graphics/SVG/1.1/DTD/svg11.dtd">
<svg width="100%" height="100%" viewBox="0 0 198 644" version="1.1" xmlns="http://www.w3.org/2000/svg" xmlns:xlink="http://www.w3.org/1999/xlink" xml:space="preserve" xmlns:serif="http://www.serif.com/" style="fill-rule:evenodd;clip-rule:evenodd;stroke-linejoin:round;stroke-miterlimit:1.41421;">
    <g transform="matrix(1,0,0,1,-696,-363)">
        <g>
            <g transform="matrix(1.33753,0,0,1.66643,-654.883,-336.099)">
                <rect x="1074" y="728" width="23" height="61" style="fill:rgb(114,96,92);"/>
                <path d="M1097.64,726.59L1097.93,726.701L1098.2,726.851L1098.43,727.036L1098.62,727.25L1098.76,727.487L1098.84,727.739L1098.87,728L1098.8,736.794L1098.63,758.176L1098.47,784.646L1098.45,789L1098.43,789.203L1098.37,789.399L1098.26,789.583L1098.11,789.748L1097.93,789.891L1097.93,789.891L1097.72,790.006L1097.5,790.091L1097.25,790.142L1097,790.159L1088.99,790.14L1074,790.125L1073.76,790.107L1073.52,790.056L1073.47,790.038L1073.3,789.974L1073.1,789.861L1072.93,789.723L1072.93,789.723L1072.79,789.563L1072.68,789.385L1072.62,789.196L1072.6,789L1072.59,780.398L1072.55,768.99L1072.42,745.77L1072.3,728L1072.32,727.762L1072.39,727.531L1072.52,727.314L1072.69,727.116L1072.9,726.946L1072.9,726.946L1073.14,726.806L1073.41,726.703L1073.7,726.639L1074,726.616L1074.98,726.611L1096.14,726.504L1097,726.5L1097.33,726.523L1097.64,726.59ZM1075.58,746.894L1075.45,768.127L1075.41,778.6L1075.4,778.607L1075.4,787.875L1075.4,787.876L1076.16,787.876L1076.16,787.875L1088.18,787.86L1088.17,787.837L1095.55,787.837L1095.55,787.832L1095.53,782.215L1095.37,756.818L1095.2,736.38L1095.14,729.489L1078.17,729.389L1078.15,729.376L1075.71,729.376L1075.7,729.367L1075.58,746.894Z" style="fill:rgb(55,55,55);"/>
            </g>
            <g transform="matrix(1.33753,0,0,1.33753,-653.883,-93.985)">
                <path d="M1074,736L1085.5,736" style="fill:url(#_Linear1);"/>
                <path d="M1074.05,734.136L1075.18,734.27L1076.67,734.424L1078.27,734.548L1079.05,734.586L1079.8,734.6L1080.6,734.58L1081.5,734.526L1083.37,734.365L1084.88,734.204L1085.5,734.131L1085.51,734.131L1086.77,734.68L1087.3,735.993L1087.3,736.007L1086.77,737.32L1085.51,737.869L1085.5,737.869L1084.88,737.796L1083.37,737.635L1081.5,737.474L1080.6,737.42L1079.8,737.4L1079.05,737.414L1078.27,737.452L1076.67,737.576L1075.18,737.73L1074.05,737.864L1074,737.869L1073.99,737.869L1072.68,737.32L1072.13,736.007L1072.13,735.993L1072.68,734.68L1073.99,734.131L1074,734.131L1074.05,734.136Z" style="fill:rgb(55,55,55);"/>
            </g>
            <g transform="matrix(1.33753,0,0,1.33753,-653.883,-81.9472)">
                <path d="M1074,736L1085.5,736" style="fill:url(#_Linear2);"/>
                <path d="M1074.05,734.136L1075.18,734.27L1076.67,734.424L1078.27,734.548L1079.05,734.586L1079.8,734.6L1080.6,734.58L1081.5,734.526L1083.37,734.365L1084.88,734.204L1085.5,734.131L1085.51,734.131L1086.77,734.68L1087.3,735.993L1087.3,736.007L1086.77,737.32L1085.51,737.869L1085.5,737.869L1084.88,737.796L1083.37,737.635L1081.5,737.474L1080.6,737.42L1079.8,737.4L1079.05,737.414L1078.27,737.452L1076.67,737.576L1075.18,737.73L1074.05,737.864L1074,737.869L1073.99,737.869L1072.68,737.32L1072.13,736.007L1072.13,735.993L1072.68,734.68L1073.99,734.131L1074,734.131L1074.05,734.136Z" style="fill:rgb(55,55,55);"/>
            </g>
            <g transform="matrix(1.33753,0,0,1.33753,-653.883,-69.9095)">
                <path d="M1074,736L1085.5,736" style="fill:url(#_Linear3);"/>
                <path d="M1074.05,734.136L1075.18,734.27L1076.67,734.424L1078.27,734.548L1079.05,734.586L1079.8,734.6L1080.6,734.58L1081.5,734.526L1083.37,734.365L1084.88,734.204L1085.5,734.131L1085.51,734.131L1086.77,734.68L1087.3,735.993L1087.3,736.007L1086.77,737.32L1085.51,737.869L1085.5,737.869L1084.88,737.796L1083.37,737.635L1081.5,737.474L1080.6,737.42L1079.8,737.4L1079.05,737.414L1078.27,737.452L1076.67,737.576L1075.18,737.73L1074.05,737.864L1074,737.869L1073.99,737.869L1072.68,737.32L1072.13,736.007L1072.13,735.993L1072.68,734.68L1073.99,734.131L1074,734.131L1074.05,734.136Z" style="fill:rgb(55,55,55);"/>
            </g>
            <g transform="matrix(1.33753,0,0,1.33753,-653.883,-57.8718)">
                <path d="M1074,736L1085.5,736" style="fill:url(#_Linear4);"/>
                <path d="M1074.05,734.136L1075.18,734.27L1076.67,734.424L1078.27,734.548L1079.05,734.586L1079.8,734.6L1080.6,734.58L1081.5,734.526L1083.37,734.365L1084.88,734.204L1085.5,734.131L1085.51,734.131L1086.77,734.68L1087.3,735.993L1087.3,736.007L1086.77,737.32L1085.51,737.869L1085.5,737.869L1084.88,737.796L1083.37,737.635L1081.5,737.474L1080.6,737.42L1079.8,737.4L1079.05,737.414L1078.27,737.452L1076.67,737.576L1075.18,737.73L1074.05,737.864L1074,737.869L1073.99,737.869L1072.68,737.32L1072.13,736.007L1072.13,735.993L1072.68,734.68L1073.99,734.131L1074,734.131L1074.05,734.136Z" style="fill:rgb(55,55,55);"/>
            </g>
            <g transform="matrix(1.33753,0,0,1.33753,-653.883,-45.834)">
                <path d="M1074,736L1085.5,736" style="fill:url(#_Linear5);"/>
                <path d="M1074.05,734.136L1075.18,734.27L1076.67,734.424L1078.27,734.548L1079.05,734.586L1079.8,734.6L1080.6,734.58L1081.5,734.526L1083.37,734.365L1084.88,734.204L1085.5,734.131L1085.51,734.131L1086.77,734.68L1087.3,735.993L1087.3,736.007L1086.77,737.32L1085.51,737.869L1085.5,737.869L1084.88,737.796L1083.37,737.635L1081.5,737.474L1080.6,737.42L1079.8,737.4L1079.05,737.414L1078.27,737.452L1076.67,737.576L1075.18,737.73L1074.05,737.864L1074,737.869L1073.99,737.869L1072.68,737.32L1072.13,736.007L1072.13,735.993L1072.68,734.68L1073.99,734.131L1074,734.131L1074.05,734.136Z" style="fill:rgb(55,55,55);"/>
            </g>
            <g transform="matrix(1.33753,0,0,1.33753,-653.883,-33.7963)">
                <path d="M1074,736L1085.5,736" style="fill:url(#_Linear6);"/>
                <path d="M1074.05,734.136L1075.18,734.27L1076.67,734.424L1078.27,734.548L1079.05,734.586L1079.8,734.6L1080.6,734.58L1081.5,734.526L1083.37,734.365L1084.88,734.204L1085.5,734.131L1085.51,734.131L1086.77,734.68L1087.3,735.993L1087.3,736.007L1086.77,737.32L1085.51,737.869L1085.5,737.869L1084.88,737.796L1083.37,737.635L1081.5,737.474L1080.6,737.42L1079.8,737.4L1079.05,737.414L1078.27,737.452L1076.67,737.576L1075.18,737.73L1074.05,737.864L1074,737.869L1073.99,737.869L1072.68,737.32L1072.13,736.007L1072.13,735.993L1072.68,734.68L1073.99,734.131L1074,734.131L1074.05,734.136Z" style="fill:rgb(55,55,55);"/>
            </g>
            <g transform="matrix(1.33753,0,0,1.33753,-653.883,-21.7586)">
                <path d="M1074,736L1085.5,736" style="fill:url(#_Linear7);"/>
                <path d="M1074.05,734.136L1075.18,734.27L1076.67,734.424L1078.27,734.548L1079.05,734.586L1079.8,734.6L1080.6,734.58L1081.5,734.526L1083.37,734.365L1084.88,734.204L1085.5,734.131L1085.51,734.131L1086.77,734.68L1087.3,735.993L1087.3,736.007L1086.77,737.32L1085.51,737.869L1085.5,737.869L1084.88,737.796L1083.37,737.635L1081.5,737.474L1080.6,737.42L1079.8,737.4L1079.05,737.414L1078.27,737.452L1076.67,737.576L1075.18,737.73L1074.05,737.864L1074,737.869L1073.99,737.869L1072.68,737.32L1072.13,736.007L1072.13,735.993L1072.68,734.68L1073.99,734.131L1074,734.131L1074.05,734.136Z" style="fill:rgb(55,55,55);"/>
            </g>
            <g transform="matrix(1.33753,0,0,1.33753,-652.877,-88.6348)">
                <path d="M1102.5,803.698C1102.5,801.656 1101.69,799.698 1100.25,798.255C1098.8,796.811 1096.84,796 1094.8,796C1088.47,796 1079.53,796 1073.2,796C1071.16,796 1069.2,796.811 1067.76,798.255C1066.31,799.698 1065.5,801.656 1065.5,803.698C1065.5,805.525 1065.5,807.475 1065.5,809.302C1065.5,811.344 1066.31,813.302 1067.76,814.745C1069.2,816.189 1071.16,817 1073.2,817C1079.53,817 1088.47,817 1094.8,817C1096.84,817 1098.8,816.189 1100.25,814.745C1101.69,813.302 1102.5,811.344 1102.5,809.302C1102.5,807.475 1102.5,805.525 1102.5,803.698Z" style="fill:url(#_Linear8);"/>
                <path d="M1095.04,794.288L1095.15,794.291L1095.27,794.295L1095.38,794.3L1095.5,794.307L1095.62,794.315L1095.73,794.325L1095.85,794.336L1095.96,794.348L1096.08,794.362L1096.19,794.378L1096.31,794.394L1096.42,794.413L1096.54,794.432L1096.65,794.453L1096.76,794.475L1096.88,794.498L1096.99,794.523L1097.1,794.55L1097.21,794.577L1097.33,794.606L1097.44,794.636L1097.55,794.668L1097.66,794.701L1097.77,794.735L1097.88,794.771L1097.99,794.808L1098.1,794.846L1098.2,794.886L1098.31,794.927L1098.42,794.969L1098.52,795.013L1098.63,795.058L1098.74,795.104L1098.84,795.152L1098.95,795.2L1099.05,795.25L1099.15,795.302L1099.26,795.354L1099.36,795.408L1099.46,795.464L1099.56,795.52L1099.66,795.578L1099.76,795.637L1099.86,795.697L1099.96,795.758L1100.06,795.821L1100.15,795.885L1100.25,795.95L1100.34,796.017L1100.44,796.084L1100.53,796.153L1100.63,796.223L1100.72,796.294L1100.81,796.367L1100.9,796.44L1100.99,796.515L1101.08,796.591L1101.17,796.669L1101.25,796.747L1101.34,796.827L1101.43,796.907L1101.51,796.989L1101.6,797.072L1101.68,797.156L1101.76,797.241L1101.84,797.327L1101.92,797.413L1102,797.501L1102.07,797.589L1102.15,797.679L1102.22,797.769L1102.3,797.86L1102.37,797.952L1102.44,798.044L1102.51,798.138L1102.58,798.232L1102.65,798.327L1102.71,798.423L1102.78,798.52L1102.84,798.617L1102.9,798.715L1102.96,798.814L1103.03,798.913L1103.08,799.014L1103.14,799.115L1103.2,799.216L1103.25,799.318L1103.31,799.421L1103.36,799.525L1103.41,799.629L1103.46,799.734L1103.51,799.839L1103.56,799.945L1103.6,800.052L1103.65,800.159L1103.69,800.267L1103.74,800.375L1103.78,800.484L1103.82,800.593L1103.85,800.703L1103.89,800.813L1103.93,800.924L1103.96,801.035L1103.99,801.147L1104.03,801.259L1104.06,801.372L1104.09,801.485L1104.11,801.598L1104.14,801.712L1104.16,801.826L1104.19,801.941L1104.21,802.056L1104.23,802.171L1104.25,802.287L1104.27,802.403L1104.28,802.52L1104.3,802.636L1104.31,802.753L1104.32,802.87L1104.34,802.988L1104.34,803.106L1104.35,803.224L1104.36,803.342L1104.36,803.46L1104.37,803.579L1104.37,803.692L1104.3,809.254L1104.3,809.308L1104.29,809.42L1104.29,809.538L1104.29,809.655L1104.28,809.773L1104.27,809.89L1104.26,810.007L1104.25,810.123L1104.24,810.24L1104.23,810.356L1104.21,810.472L1104.19,810.587L1104.18,810.702L1104.16,810.817L1104.14,810.932L1104.12,811.046L1104.09,811.159L1104.07,811.273L1104.04,811.386L1104.02,811.499L1103.99,811.611L1103.96,811.723L1103.93,811.834L1103.89,811.945L1103.86,812.055L1103.82,812.165L1103.79,812.275L1103.75,812.384L1103.71,812.492L1103.67,812.601L1103.63,812.708L1103.58,812.815L1103.54,812.921L1103.49,813.027L1103.45,813.132L1103.4,813.237L1103.35,813.341L1103.3,813.445L1103.25,813.547L1103.19,813.65L1103.14,813.751L1103.08,813.852L1103.02,813.952L1102.97,814.052L1102.91,814.151L1102.85,814.249L1102.78,814.346L1102.72,814.443L1102.65,814.539L1102.59,814.634L1102.52,814.729L1102.45,814.822L1102.38,814.915L1102.32,815.007L1102.24,815.099L1102.17,815.189L1102.1,815.279L1102.02,815.367L1101.94,815.455L1101.87,815.542L1101.79,815.628L1101.71,815.714L1101.63,815.798L1101.55,815.881L1101.46,815.964L1101.38,816.045L1101.3,816.125L1101.21,816.205L1101.12,816.283L1101.04,816.359L1100.95,816.435L1100.86,816.509L1100.77,816.583L1100.68,816.655L1100.59,816.725L1100.49,816.795L1100.4,816.864L1100.31,816.931L1100.21,816.997L1100.12,817.062L1100.02,817.125L1099.92,817.188L1099.83,817.249L1099.73,817.309L1099.63,817.367L1099.53,817.425L1099.43,817.481L1099.33,817.536L1099.23,817.589L1099.12,817.642L1099.02,817.693L1098.92,817.743L1098.81,817.791L1098.71,817.839L1098.61,817.885L1098.5,817.929L1098.39,817.973L1098.29,818.015L1098.18,818.056L1098.07,818.095L1097.96,818.133L1097.86,818.17L1097.75,818.206L1097.64,818.24L1097.53,818.273L1097.42,818.304L1097.31,818.334L1097.2,818.363L1097.09,818.391L1096.98,818.417L1096.86,818.442L1096.75,818.465L1096.64,818.487L1096.53,818.508L1096.41,818.527L1096.3,818.545L1096.18,818.562L1096.07,818.577L1095.96,818.591L1095.84,818.603L1095.73,818.614L1095.61,818.624L1095.5,818.632L1095.38,818.639L1095.27,818.644L1095.15,818.648L1095.04,818.65L1094.92,818.651L1094.81,818.651L1093.45,818.635L1076.74,818.474L1073.19,818.45L1073.08,818.449L1072.97,818.446L1072.86,818.442L1072.74,818.437L1072.63,818.43L1072.52,818.421L1072.41,818.412L1072.29,818.401L1072.18,818.388L1072.07,818.374L1071.96,818.359L1071.85,818.343L1071.74,818.325L1071.63,818.306L1071.52,818.285L1071.41,818.263L1071.3,818.24L1071.19,818.215L1071.08,818.189L1070.97,818.162L1070.86,818.134L1070.76,818.104L1070.65,818.073L1070.54,818.041L1070.43,818.007L1070.33,817.972L1070.22,817.936L1070.12,817.898L1070.02,817.859L1069.91,817.819L1069.81,817.778L1069.7,817.736L1069.6,817.692L1069.5,817.647L1069.4,817.6L1069.3,817.553L1069.2,817.504L1069.1,817.454L1069,817.403L1068.9,817.351L1068.8,817.297L1068.71,817.242L1068.61,817.186L1068.52,817.129L1068.42,817.071L1068.33,817.011L1068.23,816.95L1068.14,816.889L1068.13,816.882L1068.05,816.826L1067.95,816.762L1067.86,816.697L1067.77,816.63L1067.68,816.563L1067.6,816.494L1067.51,816.425L1067.42,816.354L1067.33,816.282L1067.25,816.209L1067.16,816.135L1067.08,816.059L1067,815.983L1066.91,815.905L1066.83,815.827L1066.75,815.747L1066.67,815.666L1066.6,815.584L1066.52,815.502L1066.44,815.419L1066.37,815.334L1066.29,815.249L1066.22,815.164L1066.15,815.077L1066.08,814.99L1066.01,814.901L1065.94,814.812L1065.88,814.723L1065.81,814.632L1065.74,814.541L1065.68,814.449L1065.62,814.356L1065.56,814.263L1065.5,814.169L1065.44,814.074L1065.38,813.979L1065.33,813.883L1065.27,813.786L1065.22,813.689L1065.16,813.591L1065.11,813.492L1065.06,813.393L1065.01,813.294L1064.96,813.193L1064.92,813.092L1064.87,812.991L1064.83,812.889L1064.79,812.787L1064.74,812.684L1064.7,812.58L1064.66,812.476L1064.63,812.372L1064.59,812.267L1064.56,812.162L1064.52,812.056L1064.49,811.95L1064.46,811.843L1064.43,811.736L1064.4,811.629L1064.37,811.521L1064.34,811.413L1064.32,811.304L1064.3,811.195L1064.27,811.086L1064.25,810.977L1064.23,810.867L1064.21,810.757L1064.2,810.646L1064.18,810.535L1064.17,810.424L1064.15,810.313L1064.14,810.202L1064.13,810.09L1064.12,809.978L1064.12,809.866L1064.12,809.831L1064.11,809.753L1064.11,809.641L1064.1,809.528L1064.1,809.415L1064.1,809.307L1064.09,803.693L1064.09,803.584L1064.09,803.471L1064.09,803.359L1064.1,803.246L1064.1,803.133L1064.11,803.021L1064.12,802.966L1064.12,802.909L1064.13,802.797L1064.14,802.685L1064.15,802.574L1064.17,802.463L1064.18,802.352L1064.2,802.241L1064.22,802.131L1064.24,802.021L1064.26,801.911L1064.28,801.801L1064.3,801.692L1064.33,801.583L1064.35,801.475L1064.38,801.367L1064.41,801.259L1064.44,801.152L1064.47,801.045L1064.5,800.939L1064.54,800.833L1064.57,800.727L1064.61,800.622L1064.65,800.517L1064.69,800.413L1064.73,800.309L1064.77,800.206L1064.81,800.103L1064.85,800.001L1064.9,799.899L1064.95,799.798L1064.99,799.697L1065.04,799.597L1065.09,799.498L1065.14,799.399L1065.2,799.301L1065.25,799.203L1065.31,799.106L1065.36,799.01L1065.42,798.914L1065.48,798.819L1065.54,798.725L1065.6,798.631L1065.66,798.538L1065.72,798.446L1065.79,798.354L1065.86,798.263L1065.92,798.173L1065.99,798.084L1066.06,797.995L1066.13,797.907L1066.2,797.82L1066.27,797.734L1066.35,797.649L1066.42,797.564L1066.5,797.48L1066.58,797.397L1066.65,797.315L1066.73,797.234L1066.82,797.154L1066.9,797.075L1066.98,796.997L1067.06,796.92L1067.14,796.844L1067.23,796.77L1067.32,796.696L1067.4,796.624L1067.49,796.553L1067.58,796.483L1067.67,796.414L1067.76,796.346L1067.85,796.279L1067.94,796.214L1068.03,796.149L1068.12,796.086L1068.2,796.031L1068.21,796.024L1068.31,795.963L1068.4,795.903L1068.5,795.844L1068.6,795.787L1068.69,795.73L1068.79,795.675L1068.89,795.621L1068.99,795.568L1069.08,795.517L1069.18,795.467L1069.28,795.417L1069.38,795.37L1069.49,795.323L1069.59,795.278L1069.69,795.233L1069.8,795.191L1069.9,795.149L1070,795.109L1070.11,795.069L1070.21,795.032L1070.32,794.995L1070.42,794.96L1070.53,794.926L1070.64,794.893L1070.75,794.862L1070.85,794.832L1070.96,794.803L1071.07,794.775L1071.18,794.749L1071.29,794.724L1071.4,794.701L1071.51,794.679L1071.62,794.658L1071.73,794.638L1071.84,794.62L1071.95,794.603L1072.07,794.588L1072.18,794.574L1072.29,794.561L1072.4,794.55L1072.52,794.54L1072.63,794.531L1072.74,794.524L1072.86,794.519L1072.97,794.514L1073.08,794.511L1073.19,794.51L1083.06,794.424L1094.81,794.288L1094.92,794.287L1095.04,794.288ZM1100.63,803.553L1100.63,803.48L1100.63,803.408L1100.63,803.385L1100.63,803.336L1100.62,803.264L1100.62,803.192L1100.61,803.12L1100.61,803.049L1100.6,802.977L1100.59,802.906L1100.58,802.835L1100.57,802.764L1100.56,802.693L1100.55,802.622L1100.54,802.551L1100.52,802.481L1100.51,802.411L1100.5,802.341L1100.48,802.271L1100.46,802.201L1100.44,802.132L1100.43,802.063L1100.41,801.994L1100.39,801.925L1100.37,801.857L1100.35,801.789L1100.32,801.721L1100.3,801.653L1100.28,801.586L1100.25,801.519L1100.22,801.452L1100.2,801.385L1100.17,801.319L1100.14,801.254L1100.11,801.188L1100.08,801.123L1100.05,801.058L1100.02,800.994L1099.99,800.93L1099.95,800.866L1099.92,800.803L1099.89,800.74L1099.85,800.677L1099.82,800.615L1099.78,800.553L1099.74,800.492L1099.7,800.431L1099.66,800.37L1099.62,800.31L1099.58,800.251L1099.54,800.192L1099.5,800.133L1099.45,800.075L1099.41,800.017L1099.37,799.96L1099.32,799.903L1099.27,799.847L1099.23,799.791L1099.18,799.736L1099.13,799.681L1099.08,799.627L1099.03,799.573L1098.98,799.52L1098.93,799.467L1098.88,799.416L1098.82,799.365L1098.77,799.314L1098.72,799.264L1098.66,799.215L1098.61,799.167L1098.55,799.12L1098.5,799.073L1098.44,799.027L1098.38,798.981L1098.33,798.937L1098.27,798.893L1098.21,798.85L1098.15,798.807L1098.09,798.766L1098.03,798.725L1097.97,798.684L1097.91,798.645L1097.85,798.606L1097.79,798.568L1097.72,798.531L1097.66,798.495L1097.6,798.459L1097.54,798.424L1097.47,798.39L1097.41,798.357L1097.34,798.325L1097.28,798.293L1097.21,798.262L1097.14,798.232L1097.08,798.202L1097.01,798.174L1096.94,798.146L1096.88,798.119L1096.81,798.093L1096.74,798.068L1096.67,798.044L1096.6,798.02L1096.54,797.997L1096.47,797.975L1096.4,797.954L1096.33,797.934L1096.26,797.915L1096.18,797.896L1096.11,797.878L1096.04,797.862L1095.97,797.846L1095.97,797.846L1095.9,797.831L1095.83,797.817L1095.76,797.803L1095.68,797.791L1095.61,797.78L1095.54,797.769L1095.47,797.759L1095.39,797.75L1095.32,797.743L1095.25,797.735L1095.17,797.729L1095.1,797.724L1095.03,797.72L1094.95,797.716L1094.88,797.714L1094.8,797.712L1083.06,797.576L1073.2,797.49L1073.12,797.49L1073.04,797.491L1072.97,797.492L1072.89,797.495L1072.81,797.498L1072.74,797.502L1072.66,797.508L1072.58,797.514L1072.51,797.521L1072.43,797.529L1072.36,797.538L1072.28,797.548L1072.2,797.559L1072.13,797.571L1072.05,797.584L1071.98,797.598L1071.9,797.612L1071.83,797.628L1071.76,797.644L1071.68,797.661L1071.61,797.68L1071.53,797.699L1071.46,797.719L1071.39,797.74L1071.31,797.761L1071.24,797.784L1071.17,797.808L1071.1,797.832L1071.03,797.857L1070.95,797.884L1070.88,797.911L1070.81,797.938L1070.74,797.967L1070.67,797.997L1070.6,798.027L1070.53,798.059L1070.46,798.091L1070.39,798.124L1070.33,798.158L1070.26,798.193L1070.19,798.228L1070.13,798.265L1070.06,798.302L1069.99,798.34L1069.93,798.379L1069.86,798.418L1069.8,798.459L1069.79,798.464L1069.73,798.501L1069.67,798.543L1069.61,798.586L1069.54,798.63L1069.48,798.675L1069.42,798.721L1069.36,798.767L1069.3,798.815L1069.24,798.863L1069.18,798.911L1069.12,798.961L1069.06,799.011L1069,799.063L1068.94,799.114L1068.89,799.167L1068.83,799.221L1068.78,799.275L1068.72,799.33L1068.67,799.385L1068.61,799.442L1068.56,799.498L1068.51,799.556L1068.46,799.614L1068.41,799.672L1068.36,799.731L1068.31,799.791L1068.26,799.851L1068.21,799.912L1068.16,799.973L1068.12,800.035L1068.08,800.097L1068.03,800.16L1067.99,800.223L1067.94,800.287L1067.9,800.351L1067.86,800.416L1067.82,800.481L1067.78,800.547L1067.74,800.613L1067.71,800.68L1067.67,800.747L1067.63,800.814L1067.6,800.882L1067.56,800.95L1067.53,801.019L1067.5,801.088L1067.46,801.158L1067.43,801.228L1067.4,801.298L1067.38,801.369L1067.35,801.44L1067.32,801.511L1067.29,801.583L1067.27,801.655L1067.24,801.727L1067.22,801.8L1067.19,801.873L1067.17,801.946L1067.15,802.02L1067.13,802.094L1067.11,802.168L1067.09,802.242L1067.07,802.317L1067.06,802.392L1067.04,802.467L1067.03,802.542L1067.01,802.618L1067,802.694L1066.99,802.77L1066.97,802.846L1066.96,802.923L1066.95,803L1066.95,803.077L1066.94,803.154L1066.93,803.193L1066.93,803.231L1066.93,803.308L1066.92,803.386L1066.92,803.464L1066.91,803.542L1066.91,803.62L1066.91,803.702L1066.9,809.298L1066.9,809.381L1066.9,809.459L1066.9,809.537L1066.91,809.615L1066.91,809.668L1066.91,809.692L1066.92,809.77L1066.92,809.847L1066.93,809.925L1066.94,810.002L1066.95,810.079L1066.96,810.155L1066.97,810.232L1066.98,810.308L1067,810.384L1067.01,810.46L1067.03,810.536L1067.04,810.611L1067.06,810.687L1067.08,810.762L1067.09,810.836L1067.11,810.911L1067.13,810.985L1067.15,811.059L1067.18,811.132L1067.2,811.206L1067.22,811.279L1067.25,811.351L1067.28,811.424L1067.3,811.496L1067.33,811.567L1067.36,811.639L1067.39,811.709L1067.42,811.78L1067.45,811.85L1067.48,811.92L1067.51,811.99L1067.55,812.059L1067.58,812.127L1067.62,812.196L1067.65,812.263L1067.69,812.331L1067.72,812.398L1067.76,812.464L1067.8,812.53L1067.84,812.596L1067.88,812.661L1067.92,812.726L1067.97,812.79L1068.01,812.853L1068.06,812.917L1068.1,812.979L1068.15,813.041L1068.19,813.103L1068.24,813.164L1068.29,813.225L1068.34,813.285L1068.39,813.344L1068.44,813.403L1068.49,813.461L1068.54,813.519L1068.59,813.576L1068.65,813.633L1068.7,813.689L1068.76,813.744L1068.81,813.799L1068.87,813.853L1068.92,813.906L1068.98,813.958L1069.04,814.01L1069.1,814.06L1069.16,814.11L1069.22,814.16L1069.28,814.208L1069.34,814.256L1069.4,814.303L1069.46,814.349L1069.53,814.394L1069.59,814.438L1069.65,814.482L1069.71,814.521L1069.71,814.525L1069.78,814.567L1069.85,814.608L1069.91,814.648L1069.98,814.687L1070.04,814.725L1070.11,814.763L1070.18,814.8L1070.24,814.836L1070.31,814.871L1070.38,814.905L1070.45,814.938L1070.52,814.971L1070.59,815.003L1070.66,815.033L1070.73,815.063L1070.8,815.093L1070.87,815.121L1070.94,815.148L1071.01,815.175L1071.09,815.2L1071.16,815.225L1071.23,815.249L1071.3,815.272L1071.38,815.294L1071.45,815.315L1071.52,815.335L1071.6,815.355L1071.67,815.373L1071.75,815.391L1071.82,815.408L1071.9,815.423L1071.97,815.438L1072.05,815.452L1072.12,815.465L1072.2,815.477L1072.27,815.489L1072.35,815.499L1072.43,815.508L1072.5,815.517L1072.58,815.524L1072.66,815.531L1072.73,815.536L1072.81,815.541L1072.89,815.545L1072.96,815.547L1073.04,815.549L1073.12,815.55L1073.2,815.55L1076.74,815.526L1093.45,815.365L1094.8,815.349L1094.88,815.348L1094.95,815.345L1095.03,815.342L1095.1,815.337L1095.18,815.332L1095.25,815.326L1095.33,815.319L1095.4,815.31L1095.47,815.302L1095.55,815.292L1095.62,815.281L1095.69,815.269L1095.77,815.257L1095.84,815.243L1095.91,815.229L1095.98,815.214L1096.06,815.198L1096.13,815.181L1096.2,815.163L1096.27,815.145L1096.34,815.125L1096.41,815.105L1096.48,815.084L1096.55,815.062L1096.62,815.039L1096.69,815.015L1096.76,814.991L1096.83,814.965L1096.9,814.939L1096.97,814.912L1097.04,814.884L1097.1,814.855L1097.17,814.826L1097.24,814.796L1097.3,814.765L1097.37,814.733L1097.43,814.7L1097.5,814.666L1097.56,814.632L1097.63,814.597L1097.69,814.561L1097.76,814.524L1097.82,814.487L1097.88,814.449L1097.94,814.41L1098.01,814.37L1098.07,814.33L1098.13,814.288L1098.19,814.246L1098.25,814.203L1098.31,814.16L1098.37,814.116L1098.42,814.071L1098.48,814.025L1098.54,813.978L1098.6,813.931L1098.65,813.883L1098.71,813.834L1098.76,813.785L1098.82,813.735L1098.87,813.684L1098.92,813.632L1098.98,813.58L1099.03,813.527L1099.08,813.473L1099.13,813.419L1099.18,813.364L1099.23,813.309L1099.28,813.253L1099.32,813.197L1099.37,813.14L1099.42,813.083L1099.46,813.025L1099.51,812.967L1099.55,812.908L1099.59,812.849L1099.64,812.789L1099.68,812.729L1099.72,812.668L1099.76,812.607L1099.8,812.545L1099.84,812.483L1099.87,812.421L1099.91,812.358L1099.95,812.295L1099.98,812.231L1100.02,812.167L1100.05,812.103L1100.08,812.038L1100.11,811.973L1100.14,811.908L1100.17,811.842L1100.2,811.776L1100.23,811.709L1100.26,811.642L1100.29,811.575L1100.32,811.507L1100.34,811.44L1100.37,811.372L1100.39,811.303L1100.41,811.234L1100.43,811.166L1100.45,811.096L1100.48,811.027L1100.5,810.957L1100.51,810.887L1100.53,810.817L1100.55,810.747L1100.57,810.676L1100.58,810.605L1100.6,810.534L1100.61,810.463L1100.62,810.391L1100.63,810.32L1100.64,810.248L1100.65,810.176L1100.66,810.104L1100.67,810.032L1100.68,809.959L1100.68,809.887L1100.69,809.814L1100.69,809.741L1100.7,809.668L1100.7,809.595L1100.7,809.522L1100.7,809.449L1100.7,809.376L1100.7,809.297L1100.7,809.243L1100.63,803.704L1100.63,803.625L1100.63,803.553Z" style="fill:rgb(55,55,55);"/>
            </g>
            <g transform="matrix(1.33753,0,0,1.33753,-654.883,-96.66)">
                <path d="M1121,417L1084,346L1084,706L1108,706L1121,417Z" style="fill:rgb(189,189,189);"/>
                <path d="M1084.16,344.28L1084.44,344.33L1084.71,344.426L1084.96,344.565L1085.19,344.744L1085.38,344.958L1085.49,345.128L1085.53,345.2L1121.21,413.364L1122.66,416.136L1122.76,416.361L1122.83,416.596L1122.86,416.839L1122.87,417.084L1120.95,457.977L1116.32,557.407L1110.62,680.502L1109.45,706.065L1109.42,706.309L1109.34,706.543L1109.23,706.762L1109.09,706.959L1108.91,707.128L1108.91,707.128L1108.7,707.265L1108.48,707.366L1108.24,707.427L1108,707.448L1084,707.429L1083.75,707.407L1083.51,707.342L1083.29,707.237L1083.08,707.094L1082.91,706.918L1082.91,706.918L1082.76,706.714L1082.66,706.488L1082.6,706.248L1082.57,706L1082.58,699.755L1082.6,646.988L1082.59,597.459L1082.55,545.276L1082.42,439.071L1082.28,346L1082.3,345.715L1082.37,345.437L1082.49,345.175L1082.64,344.936L1082.84,344.726L1083.07,344.551L1083.32,344.415L1083.59,344.324L1083.87,344.278L1084.16,344.28ZM1085.71,353.052L1085.58,438.185L1085.45,543.448L1085.41,595.177L1085.4,644.269L1085.42,696.539L1085.43,696.532L1085.43,704.572L1085.45,704.551L1106.62,704.551L1106.61,704.549L1107.81,677.477L1113.13,555.646L1117.39,457.323L1119.11,417.418L1117.9,415.087L1085.71,353.052Z" style="fill:rgb(55,55,55);"/>
            </g>
            <g transform="matrix(-1.33753,0,0,1.33753,2244.87,-96.66)">
                <path d="M1121,417L1084,346L1084,706L1108,706L1121,417Z" style="fill:url(#_Linear9);"/>
                <path d="M1117.39,457.323L1113.13,555.646L1107.81,677.477L1106.61,704.549L1106.62,704.551L1085.45,704.551L1085.43,704.572L1085.43,696.532L1085.42,696.539L1085.4,644.269L1085.41,595.177L1085.45,543.448L1085.58,438.185L1085.71,353.052L1117.9,415.087L1119.11,417.418L1117.39,457.323ZM1085.53,345.2L1085.49,345.128L1085.38,344.958L1085.19,344.744L1084.96,344.565L1084.71,344.426L1084.44,344.33L1084.16,344.28L1083.87,344.278L1083.59,344.324L1083.32,344.415L1083.07,344.551L1082.84,344.726L1082.64,344.936L1082.49,345.175L1082.37,345.437L1082.3,345.715L1082.28,346L1082.42,439.071L1082.55,545.276L1082.59,597.459L1082.6,646.988L1082.58,699.755L1082.57,706L1082.6,706.248L1082.66,706.488L1082.76,706.714L1082.91,706.918L1083.08,707.094L1083.29,707.237L1083.51,707.342L1083.75,707.407L1084,707.429L1108,707.448L1108.24,707.427L1108.48,707.366L1108.7,707.265L1108.91,707.128L1109.09,706.959L1109.23,706.762L1109.34,706.543L1109.42,706.309L1109.45,706.065L1110.62,680.502L1116.32,557.407L1120.95,457.977L1122.87,417.084L1122.86,416.839L1122.83,416.596L1122.76,416.361L1122.66,416.136L1121.21,413.364L1085.53,345.2Z" style="fill:rgb(55,55,55);"/>
            </g>
            <g transform="matrix(1.33753,0,0,1.33753,-662.908,-110.035)">
                <path d="M1162,706L1090,715L1018,706L1018,738L1162,738L1162,706Z" style="fill:url(#_Linear10);"/>
                <path d="M1162.4,704.174L1162.7,704.267L1162.98,704.41L1163.24,704.599L1163.46,704.828L1163.63,705.09L1163.76,705.378L1163.84,705.685L1163.87,706L1163.8,726.185L1163.76,738L1163.73,738.305L1163.65,738.6L1163.52,738.876L1163.34,739.126L1163.13,739.341L1163.13,739.341L1162.87,739.514L1162.6,739.642L1162.3,739.719L1162,739.745L1129.55,739.635L1070.65,739.474L1042.17,739.42L1018,739.401L1017.76,739.379L1017.52,739.316L1017.47,739.294L1017.3,739.213L1017.1,739.073L1016.93,738.9L1016.93,738.901L1016.79,738.701L1016.68,738.479L1016.62,738.243L1016.6,738L1016.59,715.448L1016.57,706L1016.59,705.759L1016.65,705.525L1016.75,705.304L1016.89,705.103L1017.05,704.928L1017.25,704.784L1017.46,704.674L1017.7,704.602L1017.94,704.57L1018.18,704.579L1018.18,704.579L1030.81,706.138L1080.56,712.232L1090,713.381L1090,713.38L1125.86,708.897L1125.85,708.775L1160.37,704.326L1161.77,704.145L1162.08,704.133L1162.4,704.174ZM1019.41,714.532L1019.4,714.536L1019.4,736.599L1019.4,736.6L1020.36,736.6L1020.36,736.599L1044.32,736.58L1071.54,736.526L1127.68,736.365L1127.62,736.25L1160.25,736.249L1160.24,736.243L1160.2,724.001L1160.14,708.108L1126.06,712.236L1090.2,716.596L1090,716.608L1089.8,716.594L1080.55,715.407L1030.53,709.029L1030.53,709.01L1019.43,707.621L1019.41,714.532Z" style="fill:rgb(55,55,55);"/>
            </g>
            <g transform="matrix(1.33753,0,0,0.972746,-668.258,163.063)">
                <path d="M1063,722L1022,690L1022,734L1063,722Z" style="fill:url(#_Linear11);"/>
                <path d="M1064.19,720.016L1064.42,720.326L1064.61,720.685L1064.75,721.084L1064.84,721.51L1064.87,721.95L1064.85,722.392L1064.77,722.823L1064.64,723.228L1064.46,723.598L1064.24,723.92L1063.99,724.185L1063.7,724.385L1063.39,724.514L1056.71,726.366L1040.47,730.893L1022.31,736.003L1022.07,736.042L1021.83,736.028L1021.6,735.96L1021.37,735.842L1021.17,735.677L1020.98,735.467L1020.92,735.373L1020.83,735.221L1020.7,734.944L1020.61,734.643L1020.55,734.325L1020.53,734L1020.58,721.375L1020.6,708.394L1020.59,696.209L1020.57,690L1020.59,689.659L1020.65,689.327L1020.75,689.015L1020.9,688.732L1021.07,688.487L1021.27,688.287L1021.5,688.138L1021.74,688.045L1021.99,688.011L1022.24,688.037L1022.49,688.123L1022.72,688.265L1022.83,688.354L1038.23,700.174L1052.52,711.086L1063.48,719.426L1063.92,719.765L1064.19,720.016ZM1023.41,696.209L1023.4,708.394L1023.42,721.375L1023.46,731.46L1039.79,726.496L1055.96,721.536L1057.94,720.925L1050.81,715.224L1036.67,703.943L1023.42,693.431L1023.41,696.209Z" style="fill:rgb(55,55,55);"/>
            </g>
            <g transform="matrix(-1.33753,0,0,0.972746,2258.25,163.063)">
                <path d="M1063,722L1022,690L1022,734L1063,722Z" style="fill:url(#_Linear12);"/>
                <path d="M1021.74,688.045L1021.5,688.138L1021.27,688.287L1021.07,688.487L1020.9,688.732L1020.75,689.015L1020.65,689.327L1020.59,689.659L1020.57,690L1020.59,696.209L1020.6,708.394L1020.58,721.375L1020.53,734L1020.55,734.325L1020.61,734.643L1020.7,734.944L1020.83,735.221L1020.92,735.373L1020.98,735.467L1021.17,735.677L1021.37,735.842L1021.6,735.96L1021.83,736.028L1022.07,736.042L1022.31,736.003L1040.47,730.893L1056.71,726.366L1063.39,724.514L1063.7,724.385L1063.99,724.185L1064.24,723.92L1064.46,723.598L1064.64,723.228L1064.77,722.823L1064.85,722.392L1064.87,721.95L1064.84,721.51L1064.75,721.084L1064.61,720.685L1064.42,720.326L1064.19,720.016L1064.18,720.008L1063.92,719.765L1063.48,719.426L1052.52,711.086L1038.23,700.174L1022.83,688.354L1022.72,688.265L1022.49,688.123L1022.24,688.037L1021.99,688.011L1021.74,688.045ZM1036.67,703.943L1050.81,715.224L1057.94,720.925L1055.96,721.536L1039.79,726.496L1023.46,731.46L1023.42,721.375L1023.4,708.394L1023.41,696.209L1023.42,693.431L1036.67,703.943Z" style="fill:rgb(55,55,55);"/>
            </g>
            <path d="M753.865,862.507L762.062,862.686L772.762,862.892L784.303,863.058L789.974,863.109L795.357,863.127L801.091,863.1L807.61,863.029L821.091,862.814L831.98,862.598L836.459,862.5L836.469,862.5L838.155,863.234L838.861,864.99L838.861,865.01L838.155,866.766L836.469,867.5L836.459,867.5L831.98,867.402L821.091,867.186L807.61,866.971L801.091,866.9L795.357,866.873L789.974,866.891L784.303,866.942L772.762,867.108L762.062,867.314L753.865,867.493L753.532,867.5L753.522,867.5L751.767,866.766L751.032,865.01L751.032,864.99L751.767,863.234L753.522,862.5L753.532,862.5L753.865,862.507Z" style="fill:rgb(55,55,55);"/>
        </g>
    </g>
    <defs>
        <linearGradient id="_Linear1" x1="0" y1="0" x2="1" y2="0" gradientUnits="userSpaceOnUse" gradientTransform="matrix(11.5,0,0,2e-06,1074,736)"><stop offset="0" style="stop-color:rgb(117,120,124);stop-opacity:1"/><stop offset="1" style="stop-color:rgb(172,173,176);stop-opacity:1"/></linearGradient>
        <linearGradient id="_Linear2" x1="0" y1="0" x2="1" y2="0" gradientUnits="userSpaceOnUse" gradientTransform="matrix(11.5,0,0,2e-06,1074,736)"><stop offset="0" style="stop-color:rgb(117,120,124);stop-opacity:1"/><stop offset="1" style="stop-color:rgb(172,173,176);stop-opacity:1"/></linearGradient>
        <linearGradient id="_Linear3" x1="0" y1="0" x2="1" y2="0" gradientUnits="userSpaceOnUse" gradientTransform="matrix(11.5,0,0,2e-06,1074,736)"><stop offset="0" style="stop-color:rgb(117,120,124);stop-opacity:1"/><stop offset="1" style="stop-color:rgb(172,173,176);stop-opacity:1"/></linearGradient>
        <linearGradient id="_Linear4" x1="0" y1="0" x2="1" y2="0" gradientUnits="userSpaceOnUse" gradientTransform="matrix(11.5,0,0,2e-06,1074,736)"><stop offset="0" style="stop-color:rgb(117,120,124);stop-opacity:1"/><stop offset="1" style="stop-color:rgb(172,173,176);stop-opacity:1"/></linearGradient>
        <linearGradient id="_Linear5" x1="0" y1="0" x2="1" y2="0" gradientUnits="userSpaceOnUse" gradientTransform="matrix(11.5,0,0,2e-06,1074,736)"><stop offset="0" style="stop-color:rgb(117,120,124);stop-opacity:1"/><stop offset="1" style="stop-color:rgb(172,173,176);stop-opacity:1"/></linearGradient>
        <linearGradient id="_Linear6" x1="0" y1="0" x2="1" y2="0" gradientUnits="userSpaceOnUse" gradientTransform="matrix(11.5,0,0,2e-06,1074,736)"><stop offset="0" style="stop-color:rgb(117,120,124);stop-opacity:1"/><stop offset="1" style="stop-color:rgb(172,173,176);stop-opacity:1"/></linearGradient>
        <linearGradient id="_Linear7" x1="0" y1="0" x2="1" y2="0" gradientUnits="userSpaceOnUse" gradientTransform="matrix(11.5,0,0,2e-06,1074,736)"><stop offset="0" style="stop-color:rgb(117,120,124);stop-opacity:1"/><stop offset="1" style="stop-color:rgb(172,173,176);stop-opacity:1"/></linearGradient>
        <linearGradient id="_Linear8" x1="0" y1="0" x2="1" y2="0" gradientUnits="userSpaceOnUse" gradientTransform="matrix(37,0,0,21,1065.5,806.5)"><stop offset="0" style="stop-color:rgb(117,120,124);stop-opacity:1"/><stop offset="1" style="stop-color:rgb(172,173,176);stop-opacity:1"/></linearGradient>
        <linearGradient id="_Linear9" x1="0" y1="0" x2="1" y2="0" gradientUnits="userSpaceOnUse" gradientTransform="matrix(37,0,0,360,1084,526)"><stop offset="0" style="stop-color:rgb(117,120,124);stop-opacity:1"/><stop offset="1" style="stop-color:rgb(172,173,176);stop-opacity:1"/></linearGradient>
        <linearGradient id="_Linear10" x1="0" y1="0" x2="1" y2="0" gradientUnits="userSpaceOnUse" gradientTransform="matrix(144,0,0,32,1018,722)"><stop offset="0" style="stop-color:rgb(117,120,124);stop-opacity:1"/><stop offset="1" style="stop-color:rgb(172,173,176);stop-opacity:1"/></linearGradient>
        <linearGradient id="_Linear11" x1="0" y1="0" x2="1" y2="0" gradientUnits="userSpaceOnUse" gradientTransform="matrix(41,0,0,44,1022,712)"><stop offset="0" style="stop-color:rgb(117,120,124);stop-opacity:1"/><stop offset="1" style="stop-color:rgb(172,173,176);stop-opacity:1"/></linearGradient>
        <linearGradient id="_Linear12" x1="0" y1="0" x2="1" y2="0" gradientUnits="userSpaceOnUse" gradientTransform="matrix(41,0,0,44,1022,712)"><stop offset="0" style="stop-color:rgb(117,120,124);stop-opacity:1"/><stop offset="1" style="stop-color:rgb(172,173,176);stop-opacity:1"/></linearGradient>
    </defs>
</svg>
